# xmcd CD database file
#
# Track frame offsets:
#	187
#	26087
#	41500
#	71432
#	84902
#	103962
#	126012
#	135467
#	153802
#	171565
#	184652
#	202015
#	220390
#	232037
#	255125
#	270862
#
# Disc length: 3809 seconds
#
# Revision: 0
# Processed by: cddbd v1.5.1PL2 Copyright (c) Steve Scherf et al.
# Submitted via: CDex 1.51
#
DISCID=d80edf10
DTITLE=Toots Thielemans - Best of Toots Thielemans
DYEAR=1997
DGENRE=Jazz
TTITLE0=Theme from SUMMER OF 42
TTITLE1=I do it for your love
TTITLE2=My little suede shoes
TTITLE3=You re my blues machine
TTITLE4=Dirty old man
TTITLE5=Bluesette
TTITLE6=Muskrat ramble
TTITLE7=The mooch
TTITLE8=What are you doing the rest of your life
TTITLE9=The gentle rain
TTITLE10=The best time ever I saw your face
TTITLE11=Big bossa
TTITLE12=Ben
TTITLE13=You ve got it bad girl
TTITLE14=Love remembered
TTITLE15=Old friend
EXTD=YEAR: 1997
EXTT0=
EXTT1=
EXTT2=
EXTT3=
EXTT4=
EXTT5=
EXTT6=
EXTT7=
EXTT8=
EXTT9=
EXTT10=
EXTT11=
EXTT12=
EXTT13=
EXTT14=
EXTT15=
PLAYORDER=
